<?xml version="1.0" encoding="UTF-8" standalone="no"?>
<!-- Generator: Adobe Illustrator 18.1.1, SVG Export Plug-In . SVG Version: 6.00 Build 0)  -->

<svg
   version="1.1"
   id="Capa_1"
   x="0px"
   y="0px"
   viewBox="0 0 424 424"
   style="enable-background:new 0 0 424 424;"
>
<g
     id="g3"
     style="fill:#ffffff"><g
       id="g5"
       style="fill:#ffffff"><path
         style="fill:#ffffff"
         d="M35,89C15,89,0,74,0,54s15-36,35-36h353c20,0,36,16,36,36s-16,35-36,35H35z"
         id="path7" /><path
         style="fill:#ffffff"
         d="M388,176c20,0,36,16,36,36s-16,35-36,35H35c-20,0-35-15-35-35s15-36,35-36H388z"
         id="path9" /><path
         style="fill:#ffffff"
         d="M388,335c20,0,36,15,36,35s-16,36-36,36H35c-20,0-35-16-35-36s15-35,35-35H388z"
         id="path11" /></g></g><g
     id="g13" /><g
     id="g15" /><g
     id="g17" /><g
     id="g19" /><g
     id="g21" /><g
     id="g23" /><g
     id="g25" /><g
     id="g27" /><g
     id="g29" /><g
     id="g31" /><g
     id="g33" /><g
     id="g35" /><g
     id="g37" /><g
     id="g39" /><g
     id="g41" /></svg>