<?xml version="1.0" encoding="iso-8859-1"?>
<!-- Generator: Adobe Illustrator 19.0.0, SVG Export Plug-In . SVG Version: 6.00 Build 0)  -->
<svg version="1.1" id="Layer_1" xmlns="http://www.w3.org/2000/svg" xmlnsXlink="http://www.w3.org/1999/xlink" x="0px" y="0px"
	 viewBox="0 0 504.596 504.596" style="enable-background:new 0 0 504.596 504.596;" xmlSpace="preserve">
<g>
	<g>
		<path d="M496.736,314.908c-13.027-15.532-44.263-30.411-77.028-37.891c-0.205-10.968-8.894-20.033-20.014-20.518l-41.996-1.813
			c-9.739-0.413-18.182,5.893-20.91,14.797c-35.055-5.473-67.736-18.271-117.382-43.246c-7.509-3.78-14.975-7.69-22.422-11.755
			L45.958,130.579c-3.337-1.854-7.504-1.223-10.142,1.536c-25.99,27.178-43.284,70.76-32.61,116.411
			c0.004,0.016,0.004,0.032,0.008,0.048c1.454,6.203,3.138,11.817,5.273,17.299c0.05,0.436,0.128,1.112,0.263,2.285
			c0.425,3.699,0.655,5.707,1.026,8.96c1.062,9.295,2.123,18.666,3.114,27.516c0.108,0.964,0.108,0.964,0.216,1.928
			c1.655,14.815,2.916,26.438,3.635,33.629c2.304,23.035,14.081,32.739,33.532,32.739h50.361c4.636,0,8.393-3.758,8.393-8.393
			V292.01c5.371,1.77,11.22,3.818,17.453,6.15c21.213,7.939,42.421,17.463,62.161,28.545c15.287,8.583,29.066,17.769,40.967,27.535
			c19.093,19.15,98.276,29.022,215.298,12.313C496.889,359.128,517.217,339.328,496.736,314.908z M356.98,271.458l41.986,1.813
			c2.299,0.1,4.079,2.042,3.979,4.343l-0.243,5.759c-0.001,0.013-0.003,0.026-0.004,0.039l-0.101,2.359
			c-0.1,2.291-2.046,4.075-4.342,3.975l-41.987-1.813c-1.725-0.075-3.16-1.188-3.729-2.713c-0.188-0.506-0.281-1.057-0.256-1.629
			l0.353-8.144C352.736,273.145,354.681,271.36,356.98,271.458z M50.272,356.143c-11.144,0-15.418-3.522-16.828-17.622
			c-0.727-7.274-1.993-18.946-3.656-33.823c-0.108-0.966-0.108-0.966-0.216-1.931c-0.992-8.864-2.055-18.247-3.118-27.553
			c-0.372-3.257-0.602-5.267-1.028-8.971c-0.28-2.436-0.314-2.732-0.366-3.186c0.16,0.073,0.321,0.143,0.481,0.215
			c0.056,0.025,0.111,0.05,0.167,0.075c1.497,0.674,2.994,1.325,4.501,1.958c0.07,0.029,0.141,0.059,0.211,0.088
			c9.514,3.979,19.522,7.254,33.469,11.367c7.391,2.18,12.922,3.872,17.743,5.5c0.051,0.017,0.102,0.034,0.153,0.052
			c0.49,0.166,0.972,0.331,1.449,0.496c0.077,0.027,0.153,0.053,0.23,0.08c1.307,0.454,2.57,0.908,3.814,1.37
			c0.228,0.085,0.457,0.169,0.684,0.255c0.284,0.107,0.567,0.215,0.849,0.323c0.276,0.105,0.551,0.211,0.826,0.317
			c0.252,0.098,0.505,0.196,0.757,0.295c0.328,0.129,0.656,0.259,0.984,0.39c0.208,0.083,0.416,0.166,0.625,0.25
			c0.078,0.032,0.157,0.064,0.236,0.096v69.96H50.272z M442.531,349.935c-63.67,9.091-114.594,10.349-152.894,5.574
			c-26.394-3.291-44.56-9.481-48.771-13.692c-13.326-10.988-27.911-20.712-44.008-29.749c-20.56-11.543-42.53-21.41-64.495-29.63
			c-7.686-2.876-14.828-5.343-21.248-7.402c-2.257-0.724-4.265-1.346-6.003-1.866c-0.681-0.204-1.231-0.365-1.645-0.485
			c-0.134-0.058-0.262-0.111-0.395-0.169c-0.477-0.205-0.953-0.409-1.42-0.606c-0.261-0.11-0.518-0.217-0.776-0.325
			c-0.37-0.155-0.741-0.31-1.106-0.461c-0.346-0.143-0.689-0.282-1.032-0.421c-0.28-0.114-0.561-0.229-0.839-0.34
			c-0.41-0.165-0.819-0.326-1.228-0.487c-0.21-0.083-0.421-0.167-0.63-0.249c-0.487-0.19-0.976-0.377-1.464-0.563
			c-0.13-0.049-0.259-0.1-0.389-0.149c-0.578-0.219-1.16-0.435-1.745-0.65c-0.041-0.015-0.082-0.031-0.124-0.046
			c-6.417-2.352-13.336-4.514-23.633-7.552c-17.467-5.153-28.214-8.823-39.799-14.357c-0.005-0.003-0.011-0.005-0.016-0.008
			c-0.452-0.216-0.906-0.435-1.361-0.657c-0.023-0.011-0.047-0.023-0.07-0.034c-0.443-0.216-0.887-0.435-1.334-0.657
			c-0.032-0.016-0.065-0.032-0.097-0.048c-0.438-0.218-0.877-0.439-1.319-0.663c-0.049-0.025-0.098-0.05-0.146-0.075
			c-0.43-0.218-0.861-0.439-1.296-0.663c-0.058-0.03-0.117-0.061-0.175-0.091c-0.428-0.221-0.859-0.445-1.293-0.673
			c-0.065-0.034-0.132-0.07-0.198-0.105c-0.426-0.224-0.854-0.45-1.287-0.681c-0.479-0.256-0.963-0.515-1.451-0.779
			c-0.021-0.011-0.04-0.022-0.061-0.033c-7-35.496,5.503-69.741,24.865-92.646l145.238,80.688
			c7.668,4.185,15.298,8.181,22.973,12.045c51.775,26.046,86.066,39.402,123.782,45.065c0.018,0.145,0.051,0.284,0.071,0.428
			c0.041,0.29,0.091,0.576,0.144,0.862c0.067,0.359,0.141,0.715,0.226,1.069c0.071,0.294,0.145,0.586,0.228,0.876
			c0.096,0.336,0.204,0.667,0.316,0.996c0.099,0.289,0.197,0.577,0.308,0.861c0.126,0.321,0.266,0.634,0.407,0.948
			c0.124,0.275,0.243,0.552,0.378,0.821c0.16,0.318,0.337,0.624,0.512,0.932c0.141,0.249,0.274,0.502,0.425,0.745
			c0.227,0.365,0.477,0.714,0.726,1.063c0.187,0.263,0.375,0.523,0.574,0.777c0.312,0.399,0.632,0.792,0.972,1.167
			c0.178,0.196,0.372,0.378,0.557,0.567c0.261,0.267,0.52,0.536,0.795,0.788c0.21,0.193,0.432,0.372,0.65,0.557
			c0.271,0.229,0.541,0.458,0.823,0.673c0.232,0.177,0.472,0.343,0.712,0.511c0.287,0.201,0.577,0.398,0.874,0.585
			c0.25,0.157,0.504,0.305,0.761,0.451c0.305,0.174,0.615,0.34,0.93,0.499c0.265,0.133,0.531,0.263,0.802,0.385
			c0.325,0.147,0.656,0.282,0.99,0.412c0.275,0.107,0.548,0.215,0.828,0.311c0.35,0.12,0.708,0.223,1.067,0.324
			c0.277,0.079,0.55,0.163,0.831,0.23c0.394,0.094,0.797,0.165,1.2,0.237c0.257,0.046,0.508,0.103,0.768,0.14
			c0.578,0.081,1.166,0.133,1.759,0.166c0.087,0.005,0.17,0.021,0.258,0.024l41.995,1.813c0.023,0.001,0.046-0.001,0.069,0
			c0.629,0.025,1.25,0.017,1.867-0.013c0.209-0.01,0.415-0.03,0.622-0.046c0.441-0.034,0.879-0.081,1.313-0.142
			c0.218-0.031,0.436-0.062,0.652-0.1c0.462-0.08,0.917-0.179,1.368-0.289c0.159-0.039,0.32-0.069,0.477-0.112
			c0.588-0.159,1.166-0.343,1.734-0.551c0.169-0.062,0.332-0.135,0.499-0.201c0.407-0.161,0.809-0.331,1.204-0.517
			c0.205-0.096,0.407-0.197,0.608-0.3c0.362-0.185,0.716-0.381,1.065-0.586c0.185-0.108,0.371-0.212,0.552-0.326
			c0.48-0.301,0.949-0.618,1.402-0.957c0.106-0.079,0.207-0.165,0.312-0.246c0.39-0.303,0.771-0.618,1.138-0.948
			c0.171-0.153,0.334-0.313,0.5-0.472c0.277-0.265,0.548-0.537,0.81-0.817c0.164-0.175,0.327-0.35,0.484-0.53
			c0.273-0.312,0.533-0.635,0.788-0.964c0.119-0.153,0.244-0.3,0.358-0.456c0.343-0.468,0.665-0.952,0.969-1.449
			c0.113-0.185,0.214-0.378,0.322-0.567c0.196-0.344,0.385-0.691,0.561-1.046c0.111-0.224,0.217-0.45,0.32-0.678
			c0.063-0.139,0.135-0.273,0.195-0.413c28.891,6.88,56.113,19.933,66.154,31.905C492.325,335.772,483.844,344.034,442.531,349.935z
			"/>
	</g>
</g>
<g>
</g>
<g>
</g>
<g>
</g>
<g>
</g>
<g>
</g>
<g>
</g>
<g>
</g>
<g>
</g>
<g>
</g>
<g>
</g>
<g>
</g>
<g>
</g>
<g>
</g>
<g>
</g>
<g>
</g>
</svg>
