<?xml version="1.0" encoding="iso-8859-1"?>
<!-- Generator: Adobe Illustrator 19.0.0, SVG Export Plug-In . SVG Version: 6.00 Build 0)  -->
<svg xmlns="http://www.w3.org/2000/svg" xmlnsXlink="http://www.w3.org/1999/xlink" version="1.1" id="Layer_1" x="0px" y="0px" viewBox="0 0 512 512" style="enable-background:new 0 0 512 512;" xmlSpace="preserve" width="512" height="512">
<g>
	<path d="M296,296c5.52,0,10-4.48,10-10s-4.48-10-10-10s-10,4.48-10,10S290.48,296,296,296z"/>
	<path d="M216,296c5.52,0,10-4.48,10-10s-4.48-10-10-10s-10,4.48-10,10S210.48,296,216,296z"/>
	<path d="M502,196H385.015c1.873-9.587,1.05-19.282-2.433-28.203C373.97,145.785,366,122.019,366,97.38V26c0-5.522-4.478-10-10-10   h-40c-5.522,0-10,4.478-10,10v71.38c0,24.64-7.97,48.405-16.585,70.424c-3.479,8.912-4.302,18.603-2.429,28.196h-68.772   c2.247-3.937,4.032-8.116,5.277-12.447c7.436-25.874-1.863-52.225-23.69-67.13c-2.38-1.626-3.801-4.517-3.801-7.732V66   c0-5.522-4.478-10-10-10h-40c-5.522,0-10,4.478-10,10v42.69c0,3.201-1.493,6.14-4.004,7.865C115.718,127.771,106,146.256,106,166   c0,10.767,2.798,21.036,7.983,30H10c-3.466,0-6.685,1.795-8.507,4.743c-1.821,2.947-1.987,6.629-0.438,9.729L20,248.36   c0,4.995,0,215.964,0,237.64c0,5.522,4.478,10,10,10h40c4.168,0,7.899-2.586,9.363-6.488L84.43,476H427.57l5.066,13.512   C434.1,493.414,437.832,496,442,496h40c5.522,0,10-4.478,10-10c0-21.742,0-232.652,0-237.64l18.944-37.889   c1.55-3.1,1.384-6.781-0.438-9.729C508.684,197.795,505.466,196,502,196z M266,416V256h166v160H266z M80,416V256h166v160H80z    M40,416V256h20v160H40z M452,256h20v160h-20V256z M308.043,175.084C317.369,151.247,326,125.336,326,97.38V36h20v61.38   c0,27.956,8.631,53.867,17.954,77.697c2.64,6.761,2.656,14.363,0.419,20.923h-56.746   C305.403,189.482,305.387,181.885,308.043,175.084z M126,166c0-13.165,6.483-25.492,17.335-32.97   c7.931-5.451,12.665-14.551,12.665-24.34V76h20v32.69c0,9.827,4.68,18.891,12.521,24.247c14.578,9.955,20.76,27.654,15.748,45.091   c-1.96,6.823-5.986,13.103-11.469,17.972h-53.236C130.913,188.399,126,177.638,126,166z M485.819,216l-10,20H36.18l-10-20   C34.116,216,477.876,216,485.819,216z M472,476h-23.07l-5.066-13.512c-1.464-3.902-5.195-6.488-9.363-6.488h-357   c-4.168,0-7.899,2.586-9.363,6.488L63.07,476H40v-40h432V476z"/>
	<path d="M296,316c-5.522,0-10,4.478-10,10v60c0,5.522,4.478,10,10,10s10-4.478,10-10v-60C306,320.477,301.522,316,296,316z"/>
	<path d="M216,316c-5.522,0-10,4.478-10,10v60c0,5.522,4.478,10,10,10s10-4.478,10-10v-60C226,320.477,221.522,316,216,316z"/>
</g>















</svg>
