<svg id="icons" enable-background="new 0 0 64 64" height="512" viewBox="0 0 64 64" width="512" xmlns="http://www.w3.org/2000/svg"><path d="m45 57.999-.001-2.003c0-.553-.446-.999-.999-1v-.001-42.995c0-6.617-5.383-12-12-12s-12 5.383-12 12v42.995.001c-.553.001-.999.447-.999 1v2.003h-.001c-.553 0-1 .447-1 1v4.001c0 .553.447 1 1 1h26c.553 0 1-.447 1-1v-4.001c0-.553-.447-1-1-1zm-2.001-1.003v1h-21.998v-1zm-10.999-54.996c5.514 0 10 4.486 10 10v42.995.001h-20v-.001-42.995c0-5.514 4.486-10 10-10zm12 60h-24v-2.001h24z"/><path d="m31.994 20c4.411 0 8-3.589 8-8s-3.589-8-8-8-8 3.589-8 8 3.589 8 8 8zm0-14c3.309 0 6 2.691 6 6s-2.691 6-6 6-6-2.691-6-6 2.692-6 6-6z"/><path d="m31.288 12.708 2.827 2.827c.195.195.451.293.707.293s.512-.098.707-.293c.391-.391.391-1.023 0-1.414l-2.535-2.535v-3.586c0-.553-.447-1-1-1s-1 .447-1 1v4c0 .13.026.26.077.382.051.123.124.234.217.326z"/><path d="m24 54h16c.553 0 1-.447 1-1v-31c0-.553-.447-1-1-1h-16c-.553 0-1 .447-1 1v31c0 .553.447 1 1 1zm8-11c1.654 0 3.001 1.347 3.001 3.001s-1.347 3.001-3.001 3.001-3.001-1.347-3.001-3.001 1.347-3.001 3.001-3.001zm-7-20h2v11c0 .553.447 1 1 1s1-.447 1-1v-11h2v18.102c-2.28.464-4.001 2.484-4.001 4.899 0 2.758 2.243 5.001 5.001 5.001s5.001-2.243 5.001-5.001c0-2.415-1.721-4.436-4.001-4.899v-18.102h1.999v11c0 .553.447 1 1 1s1-.447 1-1v-11h2.001v29h-14z"/></svg>