<?xml version="1.0" encoding="iso-8859-1"?>
<!-- Generator: Adobe Illustrator 19.0.0, SVG Export Plug-In . SVG Version: 6.00 Build 0)  -->
<svg version="1.1" id="Capa_1" xmlns="http://www.w3.org/2000/svg" xmlnsXlink="http://www.w3.org/1999/xlink" x="0px" y="0px"
	 viewBox="0 0 512 512" style="enable-background:new 0 0 512 512;" xmlSpace="preserve">
<g>
	<g>
		<path d="M505.513,97.978l-20.44-7.87c-29.731-11.447-56.173-30.479-76.466-55.039C390.191,12.782,363.048,0,334.138,0
			c-26.265,0-51.73,10.895-69.868,29.892l-8.35,8.745l-8.35-8.745C229.433,10.895,203.967,0,177.703,0
			c-28.91,0-56.053,12.782-74.469,35.069c-20.293,24.56-46.735,43.592-76.466,55.039l-20.44,7.87
			c-8.692,3.355-8.211,16.252,0.768,18.919c0.211,0.062,0.426,0.115,0.642,0.163c0.094,0.021,0.187,0.045,0.282,0.063
			c0.2,0.039,0.403,0.067,0.607,0.093c0.112,0.015,0.222,0.034,0.335,0.045c0.189,0.018,0.381,0.024,0.573,0.031
			c0.125,0.005,0.249,0.016,0.375,0.017c0.004,0,0.007,0,0.011,0c15.563,0,32.728,14.249,54.459,32.288
			c9.806,8.14,20.92,17.366,33.237,26.328c4.466,3.25,10.721,2.264,13.97-2.203c3.25-4.466,2.264-10.72-2.202-13.97
			c-11.802-8.586-22.188-17.208-32.23-25.544c-11.559-9.595-21.987-18.245-32.13-24.759c30.014-5.461,75.116-9.825,108.994,3.733
			c47.149,18.872,83.135,20.951,96.7,20.951c0.078,0,0.158,0,0.236,0c13.568,0,49.556-2.08,96.7-20.951
			c36.986-14.804,87.352-8.245,116.854-2.217c-9.42,6.314-19.137,14.374-29.82,23.242c-33.848,28.098-75.973,63.066-144.666,72.073
			c-5.477,0.718-9.333,5.739-8.615,11.215c0.66,5.035,4.958,8.701,9.902,8.701c0.433,0,0.872-0.028,1.313-0.086
			c74.423-9.758,120.903-48.342,154.841-76.514c21.731-18.04,38.896-32.288,54.459-32.288c4.818,0,8.951-3.436,9.832-8.173
			C512.632,104.4,510.01,99.708,505.513,97.978z M340.222,94.616c-38.794,15.527-69.572,18.799-84.243,19.385
			C255.918,114,255.857,114,255.795,114h-9.92c-0.056,0-0.111,0-0.167,0.001c-14.677-0.584-45.459-3.855-84.26-19.386
			c-25.638-10.262-55.927-11.668-82.871-9.721c14.896-10.503,28.406-22.965,40.074-37.086C133.254,30.136,154.778,20,177.703,20
			c20.827,0,41.021,8.64,55.403,23.703l15.582,16.32c1.887,1.976,4.5,3.094,7.232,3.094s5.346-1.118,7.232-3.094l15.582-16.32
			C293.118,28.64,313.311,20,334.138,20c22.925,0,44.448,10.136,59.051,27.808c12.065,14.602,26.098,27.43,41.597,38.151
			C405.197,82.724,369.647,82.838,340.222,94.616z"/>
	</g>
</g>
<g>
	<g>
		<path d="M256.045,208.458h-0.25c-5.522,0-9.961,4.477-9.961,10c0,5.523,4.517,10,10.039,10h0.172c5.522,0,10-4.477,10-10
			C266.045,212.935,261.568,208.458,256.045,208.458z"/>
	</g>
</g>
<g>
	<g>
		<path d="M237.92,320.101V276c0-8.183-4.945-15.225-12-18.318v-61.791c0-11.079-6.066-21.211-15.831-26.443l-32-17.146
			c-9.387-5.029-20.445-4.766-29.579,0.704c-9.136,5.469-14.59,15.092-14.59,25.739v78.937c-7.055,3.093-12,10.135-12,18.318v44.101
			c-10.093,1.007-18,9.546-18,19.899v142c0,16.542,13.458,30,30,30h92c16.542,0,30-13.458,30-30V340
			C255.92,329.647,248.013,321.108,237.92,320.101z M153.919,178.744L153.919,178.744c0.001-5.116,3.402-7.704,4.864-8.58
			c1.464-0.875,5.351-2.65,9.86-0.235l32,17.146c3.255,1.744,5.276,5.122,5.276,8.814V256h-52V178.744z M141.92,276h2h72h2v44h-76
			V276z M235.92,482c0,5.514-4.486,10-10,10h-18v-76c0-5.523-4.478-10-10-10c-5.522,0-10,4.477-10,10v76h-54
			c-5.514,0-10-4.486-10-10V340h112V482z"/>
	</g>
</g>
<g>
	<g>
		<path d="M204.989,370.93c-1.859-1.86-4.439-2.93-7.069-2.93s-5.21,1.07-7.07,2.93s-2.93,4.44-2.93,7.07s1.069,5.21,2.93,7.07
			c1.861,1.86,4.44,2.93,7.07,2.93s5.21-1.07,7.069-2.93c1.86-1.86,2.931-4.44,2.931-7.07S206.85,372.79,204.989,370.93z"/>
	</g>
</g>
<g>
</g>
<g>
</g>
<g>
</g>
<g>
</g>
<g>
</g>
<g>
</g>
<g>
</g>
<g>
</g>
<g>
</g>
<g>
</g>
<g>
</g>
<g>
</g>
<g>
</g>
<g>
</g>
<g>
</g>
</svg>
